<?xml version="1.0" encoding="UTF-8" standalone="no"?>
<svg width="487px" height="191px" viewBox="0 0 487 191" version="1.1" xmlns="http://www.w3.org/2000/svg" xmlns:xlink="http://www.w3.org/1999/xlink" xmlns:sketch="http://www.bohemiancoding.com/sketch/ns">
    <!-- Generator: Sketch 3.3.3 (12081) - http://www.bohemiancoding.com/sketch -->
    <title>CorujaLab</title>
    <desc>Created with Sketch.</desc>
    <defs></defs>
    <g id="Page-1" stroke="none" stroke-width="1" fill="none" fill-rule="evenodd" sketch:type="MSPage">
        <g id="CorujaLab" sketch:type="MSLayerGroup" transform="translate(0.000000, -1.000000)" fill="#FFFFFF">
            <g id="Coruja-Busto" transform="translate(124.650000, 61.000000) scale(1, -1) translate(-124.650000, -61.000000) translate(68.150000, 1.000000)" sketch:type="MSShapeGroup">
                <path d="M46.5528107,79.2603684 C41.120134,78.2829413 37.7332352,76.0780474 34.7554919,71.5546053 C32.8233685,68.6450547 32.3232894,68.5541312 30.9594376,70.8726794 C28.5499659,74.9869659 24.0719856,77.4646301 17.5936892,78.2374795 C14.6159459,78.6011734 14.6386768,78.6011734 14.7977928,75.5325066 C14.934178,72.8275338 15.0023706,72.6911486 16.7299163,72.4411091 C19.4576201,72.0546844 21.8670917,71.0317955 24.162909,69.3042497 C26.3905338,67.6221658 28.4590425,64.8035386 30.1411264,61.1666002 C30.6412055,60.0755187 31.1412845,59.1435533 31.2776697,59.0526298 C31.7550178,58.7571286 32.1414425,59.2117459 33.5962178,61.5757558 C36.1420747,65.7127731 39.1880105,68.5314003 42.6885637,69.9634448 C44.7343415,70.7817559 47.4847761,71.440951 49.8033243,71.6455288 C51.0080601,71.7364523 51.9400256,71.94103 52.1218725,72.122877 C52.3946429,72.3956473 52.371912,72.8275338 51.9627564,75.1688128 C51.7127169,76.6690499 51.3944848,78.2602104 51.2353688,78.6920968 C50.9853293,79.4876771 50.9625984,79.4876771 49.6214774,79.5331388 C48.8713588,79.5558697 47.4847761,79.4194845 46.5528107,79.2603684 L46.5528107,79.2603684 Z" id="Shape"></path>
                <path d="M13.4465299,1 C12.4646185,2.60780158 11.414628,4.6258786 10.1152347,7.47629809 C5.52339905,17.549198 3.31870623,24.0016366 1.77300744,35.3897998 C0.272770375,46.4597308 -0.0227308646,56.7113508 0.386424698,84.6021216 C0.522809885,95.1719736 0.386424698,110.219806 0.0681925937,115.85706 C-0.113654323,119.471268 -0.0227308646,119.51673 2.52312597,116.857218 C5.18263712,114.061322 6.59195073,112.902048 9.41057794,111.197233 C17.7300744,106.12825 29.2773536,104.696206 39.1652797,107.560295 L55.395117,117.039065 C56.8498923,118.448379 58.1455516,119.584922 58.3046676,119.607653 C58.6683615,119.607653 58.9638627,118.516572 59.3957491,115.538828 C59.6003269,114.106784 59.8049047,112.856586 59.8730973,112.742932 C59.9412899,112.652008 60.2822529,111.129041 60.6459467,109.333302 C62.441685,100.741035 67.4879369,84.7612377 71.3749148,75.3961215 C72.011379,73.8958844 72.8751518,71.8046448 73.3070383,70.7590251 C74.3753889,68.1222448 77.7395569,61.4848323 79.0352161,59.3935928 C79.6262186,58.4388965 81.7629199,55.4384224 83.8086977,52.7107186 C85.8317447,49.9830149 88.0821002,46.8461555 88.7640262,45.7778049 C89.468683,44.6867234 90.5824954,42.9591777 91.2644213,41.9362888 C93.5375077,38.4584665 99.0838387,28.5932713 101.993389,22.7741699 C104.566341,17.663037 108.043426,10.3846424 112.404306,1 L104.952031,1 C101.242068,9.00457451 97.4628585,16.9782038 95.5832856,20.3874292 C90.6506879,29.2979281 85.6726286,37.026422 80.5354532,43.6865654 C75.1482383,50.6422099 72.170495,55.6430001 68.6017493,63.6669953 C64.8966184,72.0092226 61.8506825,80.3514499 59.3048257,89.1482945 C57.6909343,94.6718946 56.8044306,98.5816033 55.8724651,104.01428 C55.6224256,105.491786 55.3041935,106.855638 55.1678083,107.014754 C54.713191,107.583026 53.9403416,107.355717 52.6901441,106.287366 C48.3258181,102.559505 42.8931415,100.036379 36.3239216,98.6497959 C33.2779857,97.9906008 32.6869833,97.9451391 28.368119,97.9451391 C25.7313387,97.9224083 22.9581732,98.0587934 21.980746,98.2179095 C15.8661435,99.1953367 10.569852,101.3775 7.22841494,104.28705 C5.86456306,105.491786 5.1371754,105.787287 4.81894329,105.241747 C4.59163465,104.900784 4.6825581,101.195653 5.0689828,93.3535045 C5.25082972,89.739297 5.50086923,79.9650252 5.63725442,71.6455288 C5.97821738,47.6417358 6.45556554,40.9133999 8.38768903,31.1845898 C10.3880051,21.0693551 14.0476743,12.2270488 19.9122374,3.22562641 C20.3052506,2.62158635 20.8511211,1.87046034 21.5229118,1 L13.4465299,1 Z M39.5835677,1 C33.1502505,8.71589837 29.7945406,14.9676047 29.3910079,19.9328119 C28.6636202,28.6614639 35.3010327,33.6622541 50.530712,35.9580714 C53.3038774,36.3899578 57.0544701,36.6854591 63.1690727,36.9582294 C68.8745197,37.2309998 69.5337148,37.2991924 70.5111419,37.7538097 C73.1706531,39.049469 73.7161938,42.2090592 71.4885691,43.3910641 C70.8521049,43.7320271 70.0337938,43.7774888 64.3965394,43.7320271 C57.7818578,43.6865654 51.2808305,43.2092172 44.6206872,42.2999826 C30.1411264,40.2996665 21.6397831,35.8671479 19.4803509,29.1615429 C18.7756941,27.0248416 18.798425,23.5924811 19.5030818,20.9557008 C21.0756444,15.1084259 24.849528,9.04533523 31.8972072,1 L39.5835677,1 Z" id="Shape"></path>
            </g>
            <path d="M65.6,158.2 C62.466651,161.800018 58.600023,164.64999 54,166.75 C49.399977,168.85001 44.10003,169.9 38.1,169.9 C32.633306,169.9 27.5833565,169.000009 22.95,167.2 C18.3166435,165.399991 14.300017,162.850016 10.9,159.55 C7.499983,156.249983 4.833343,152.300023 2.9,147.7 C0.966657,143.099977 0,138.033361 0,132.5 C0,126.833305 0.9833235,121.700023 2.95,117.1 C4.9166765,112.499977 7.633316,108.583349 11.1,105.35 C14.566684,102.116651 18.63331,99.633342 23.3,97.9 C27.96669,96.166658 32.999973,95.3 38.4,95.3 C43.400025,95.3 48.3166425,96.1833245 53.15,97.95 C57.9833575,99.7166755 61.899985,102.299983 64.9,105.7 L53.3,117.3 C51.699992,115.099989 49.600013,113.466672 47,112.4 C44.399987,111.333328 41.733347,110.8 39,110.8 C35.999985,110.8 33.2500125,111.349994 30.75,112.45 C28.2499875,113.550005 26.100009,115.066657 24.3,117 C22.499991,118.933343 21.100005,121.216654 20.1,123.85 C19.099995,126.483346 18.6,129.366651 18.6,132.5 C18.6,135.700016 19.099995,138.63332 20.1,141.3 C21.100005,143.96668 22.4833245,146.24999 24.25,148.15 C26.0166755,150.050009 28.133321,151.533328 30.6,152.6 C33.066679,153.666672 35.766652,154.2 38.7,154.2 C42.100017,154.2 45.066654,153.53334 47.6,152.2 C50.133346,150.86666 52.166659,149.133344 53.7,147 L65.6,158.2 Z M123.6,142.9 C123.6,146.966687 122.866674,150.649984 121.4,153.95 C119.933326,157.250017 117.933346,160.049988 115.4,162.35 C112.866654,164.650012 109.93335,166.433327 106.6,167.7 C103.26665,168.966673 99.700019,169.6 95.9,169.6 C92.166648,169.6 88.6166835,168.966673 85.25,167.7 C81.8833165,166.433327 78.9500125,164.650012 76.45,162.35 C73.9499875,160.049988 71.966674,157.250017 70.5,153.95 C69.033326,150.649984 68.3,146.966687 68.3,142.9 C68.3,138.833313 69.033326,135.166683 70.5,131.9 C71.966674,128.633317 73.9499875,125.866678 76.45,123.6 C78.9500125,121.333322 81.8833165,119.600006 85.25,118.4 C88.6166835,117.199994 92.166648,116.6 95.9,116.6 C99.700019,116.6 103.26665,117.199994 106.6,118.4 C109.93335,119.600006 112.866654,121.333322 115.4,123.6 C117.933346,125.866678 119.933326,128.633317 121.4,131.9 C122.866674,135.166683 123.6,138.833313 123.6,142.9 L123.6,142.9 Z M107.8,142.9 C107.8,141.299992 107.533336,139.733341 107,138.2 C106.466664,136.666659 105.700005,135.316673 104.7,134.15 C103.699995,132.983328 102.466674,132.033337 101,131.3 C99.533326,130.566663 97.833343,130.2 95.9,130.2 C93.966657,130.2 92.266674,130.566663 90.8,131.3 C89.333326,132.033337 88.1166715,132.983328 87.15,134.15 C86.1833285,135.316673 85.4500025,136.666659 84.95,138.2 C84.4499975,139.733341 84.2,141.299992 84.2,142.9 C84.2,144.500008 84.4499975,146.066659 84.95,147.6 C85.4500025,149.133341 86.199995,150.516661 87.2,151.75 C88.200005,152.983339 89.433326,153.966663 90.9,154.7 C92.366674,155.433337 94.066657,155.8 96,155.8 C97.933343,155.8 99.633326,155.433337 101.1,154.7 C102.566674,153.966663 103.799995,152.983339 104.8,151.75 C105.800005,150.516661 106.549998,149.133341 107.05,147.6 C107.550002,146.066659 107.8,144.500008 107.8,142.9 L107.8,142.9 Z M166.3,131.6 C165.566663,131.399999 164.850004,131.266667 164.15,131.2 C163.449997,131.133333 162.76667,131.1 162.1,131.1 C159.899989,131.1 158.050008,131.499996 156.55,132.3 C155.049993,133.100004 153.850005,134.066661 152.95,135.2 C152.049996,136.333339 151.400002,137.56666 151,138.9 C150.599998,140.23334 150.4,141.399995 150.4,142.4 L150.4,168 L134,168 L134,118.2 L149.8,118.2 L149.8,125.4 L150,125.4 C151.266673,122.866654 153.066655,120.800008 155.4,119.2 C157.733345,117.599992 160.433318,116.8 163.5,116.8 C164.16667,116.8 164.816664,116.833333 165.45,116.9 C166.083337,116.966667 166.599998,117.066666 167,117.2 L166.3,131.6 Z M206.4,168 L206.4,161.1 L206.2,161.1 C205.599997,162.233339 204.816672,163.299995 203.85,164.3 C202.883329,165.300005 201.750007,166.166663 200.45,166.9 C199.149994,167.633337 197.716675,168.233331 196.15,168.7 C194.583326,169.166669 192.933342,169.4 191.2,169.4 C187.86665,169.4 185.050012,168.800006 182.75,167.6 C180.449989,166.399994 178.583341,164.850009 177.15,162.95 C175.71666,161.049991 174.683337,158.883346 174.05,156.45 C173.416664,154.016655 173.1,151.533346 173.1,149 L173.1,118.2 L189.6,118.2 L189.6,145.2 C189.6,146.600007 189.699999,147.933327 189.9,149.2 C190.100001,150.466673 190.483331,151.599995 191.05,152.6 C191.61667,153.600005 192.366662,154.38333 193.3,154.95 C194.233338,155.51667 195.466659,155.8 197,155.8 C199.866681,155.8 202.049993,154.733344 203.55,152.6 C205.050007,150.466656 205.8,147.966681 205.8,145.1 L205.8,118.2 L222.2,118.2 L222.2,168 L206.4,168 Z M253.1,102.3 C253.1,103.566673 252.850003,104.749994 252.35,105.85 C251.849998,106.950006 251.183338,107.899996 250.35,108.7 C249.516663,109.500004 248.516673,110.133331 247.35,110.6 C246.183328,111.066669 244.966673,111.3 243.7,111.3 C241.03332,111.3 238.800009,110.416675 237,108.65 C235.199991,106.883324 234.3,104.766679 234.3,102.3 C234.3,101.099994 234.533331,99.9500055 235,98.85 C235.466669,97.7499945 236.133329,96.800004 237,96 C237.866671,95.199996 238.866661,94.5500025 240,94.05 C241.133339,93.5499975 242.36666,93.3 243.7,93.3 C244.966673,93.3 246.183328,93.533331 247.35,94 C248.516673,94.466669 249.516663,95.099996 250.35,95.9 C251.183338,96.700004 251.849998,97.6499945 252.35,98.75 C252.850003,99.8500055 253.1,101.033327 253.1,102.3 L253.1,102.3 Z M251.9,169.3 C251.9,172.366682 251.61667,175.28332 251.05,178.05 C250.483331,180.816681 249.466674,183.233323 248,185.3 C246.533326,187.366677 244.500013,188.999994 241.9,190.2 C239.299987,191.400006 236.00002,192 232,192 C230.866661,192 229.63334,191.933334 228.3,191.8 C226.96666,191.666666 225.833338,191.466668 224.9,191.2 L226,177.5 C226.600003,177.700001 227.216664,177.833333 227.85,177.9 C228.483337,177.966667 229.033331,178 229.5,178 C231.900012,178 233.499996,177.183341 234.3,175.55 C235.100004,173.916659 235.5,171.833346 235.5,169.3 L235.5,118.2 L251.9,118.2 L251.9,169.3 Z M294.3,146.3 L292.2,146.3 C290.399991,146.3 288.583343,146.383332 286.75,146.55 C284.916657,146.716667 283.283341,147.033331 281.85,147.5 C280.41666,147.966669 279.233338,148.649995 278.3,149.55 C277.366662,150.450004 276.9,151.633326 276.9,153.1 C276.9,154.033338 277.116664,154.83333 277.55,155.5 C277.983335,156.16667 278.53333,156.699998 279.2,157.1 C279.86667,157.500002 280.633329,157.783333 281.5,157.95 C282.366671,158.116668 283.199996,158.2 284,158.2 C287.33335,158.2 289.883324,157.283343 291.65,155.45 C293.416675,153.616658 294.3,151.133349 294.3,148 L294.3,146.3 Z M264.2,125 C267.133348,122.199986 270.549981,120.100007 274.45,118.7 C278.350019,117.299993 282.333313,116.6 286.4,116.6 C290.600021,116.6 294.149986,117.116661 297.05,118.15 C299.950015,119.183338 302.299991,120.783322 304.1,122.95 C305.900009,125.116677 307.216663,127.849983 308.05,131.15 C308.883338,134.450017 309.3,138.366644 309.3,142.9 L309.3,168 L294.3,168 L294.3,162.7 L294,162.7 C292.733327,164.766677 290.81668,166.366661 288.25,167.5 C285.68332,168.633339 282.900015,169.2 279.9,169.2 C277.89999,169.2 275.833344,168.933336 273.7,168.4 C271.566656,167.866664 269.616675,167.000006 267.85,165.8 C266.083325,164.599994 264.633339,163.00001 263.5,161 C262.366661,158.99999 261.8,156.533348 261.8,153.6 C261.8,149.999982 262.783323,147.100011 264.75,144.9 C266.716676,142.699989 269.249984,141.000006 272.35,139.8 C275.450016,138.599994 278.899981,137.800002 282.7,137.4 C286.500019,136.999998 290.199982,136.8 293.8,136.8 L293.8,136 C293.8,133.533321 292.933342,131.716673 291.2,130.55 C289.466658,129.383328 287.333346,128.8 284.8,128.8 C282.466655,128.8 280.216678,129.299995 278.05,130.3 C275.883323,131.300005 274.033341,132.499993 272.5,133.9 L264.2,125 Z M322.4,168 L322.4,97.2 L339.6,97.2 L339.6,153.1 L367,153.1 L367,168 L322.4,168 Z M403.5,146.3 L401.4,146.3 C399.599991,146.3 397.783343,146.383332 395.95,146.55 C394.116658,146.716667 392.483341,147.033331 391.05,147.5 C389.61666,147.966669 388.433338,148.649995 387.5,149.55 C386.566662,150.450004 386.1,151.633326 386.1,153.1 C386.1,154.033338 386.316665,154.83333 386.75,155.5 C387.183335,156.16667 387.73333,156.699998 388.4,157.1 C389.06667,157.500002 389.833329,157.783333 390.7,157.95 C391.566671,158.116668 392.399996,158.2 393.2,158.2 C396.53335,158.2 399.083325,157.283343 400.85,155.45 C402.616676,153.616658 403.5,151.133349 403.5,148 L403.5,146.3 Z M373.4,125 C376.333348,122.199986 379.749981,120.100007 383.65,118.7 C387.55002,117.299993 391.533313,116.6 395.6,116.6 C399.800021,116.6 403.349986,117.116661 406.25,118.15 C409.150014,119.183338 411.499991,120.783322 413.3,122.95 C415.100009,125.116677 416.416663,127.849983 417.25,131.15 C418.083338,134.450017 418.5,138.366644 418.5,142.9 L418.5,168 L403.5,168 L403.5,162.7 L403.2,162.7 C401.933327,164.766677 400.01668,166.366661 397.45,167.5 C394.883321,168.633339 392.100015,169.2 389.1,169.2 C387.09999,169.2 385.033344,168.933336 382.9,168.4 C380.766656,167.866664 378.816676,167.000006 377.05,165.8 C375.283325,164.599994 373.833339,163.00001 372.7,161 C371.566661,158.99999 371,156.533348 371,153.6 C371,149.999982 371.983324,147.100011 373.95,144.9 C375.916677,142.699989 378.449985,141.000006 381.55,139.8 C384.650015,138.599994 388.099981,137.800002 391.9,137.4 C395.700019,136.999998 399.399982,136.8 403,136.8 L403,136 C403,133.533321 402.133342,131.716673 400.4,130.55 C398.666658,129.383328 396.533346,128.8 394,128.8 C391.666655,128.8 389.416678,129.299995 387.25,130.3 C385.083323,131.300005 383.233341,132.499993 381.7,133.9 L373.4,125 Z M486.2,142.9 C486.2,146.366684 485.666672,149.699984 484.6,152.9 C483.533328,156.100016 481.983344,158.916654 479.95,161.35 C477.916657,163.783345 475.433348,165.733326 472.5,167.2 C469.566652,168.666674 466.233352,169.4 462.5,169.4 C459.16665,169.4 456.016682,168.716674 453.05,167.35 C450.083319,165.983327 447.800008,164.033346 446.2,161.5 L446,161.5 L446,168 L430.9,168 L430.9,92.4 L447.3,92.4 L447.3,123.5 L447.5,123.5 C448.900007,121.833325 450.866654,120.300007 453.4,118.9 C455.933346,117.499993 459.033315,116.8 462.7,116.8 C466.300018,116.8 469.549986,117.499993 472.45,118.9 C475.350015,120.300007 477.816657,122.199988 479.85,124.6 C481.883344,127.000012 483.449995,129.783318 484.55,132.95 C485.650006,136.116682 486.2,139.433316 486.2,142.9 L486.2,142.9 Z M470.4,142.9 C470.4,141.299992 470.150003,139.733341 469.65,138.2 C469.149998,136.666659 468.400005,135.316673 467.4,134.15 C466.399995,132.983328 465.166674,132.033337 463.7,131.3 C462.233326,130.566663 460.533343,130.2 458.6,130.2 C456.733324,130.2 455.066674,130.566663 453.6,131.3 C452.133326,132.033337 450.883339,132.999994 449.85,134.2 C448.816662,135.400006 448.01667,136.766659 447.45,138.3 C446.883331,139.833341 446.6,141.399992 446.6,143 C446.6,144.600008 446.883331,146.166659 447.45,147.7 C448.01667,149.233341 448.816662,150.599994 449.85,151.8 C450.883339,153.000006 452.133326,153.966663 453.6,154.7 C455.066674,155.433337 456.733324,155.8 458.6,155.8 C460.533343,155.8 462.233326,155.433337 463.7,154.7 C465.166674,153.966663 466.399995,153.000006 467.4,151.8 C468.400005,150.599994 469.149998,149.216675 469.65,147.65 C470.150003,146.083326 470.4,144.500008 470.4,142.9 L470.4,142.9 Z" id="Wordmark" sketch:type="MSShapeGroup"></path>
        </g>
    </g>
</svg>