<?xml version="1.0" encoding="UTF-8" standalone="no"?>
<svg width="488px" height="191px" viewBox="0 0 488 191" version="1.1" xmlns="http://www.w3.org/2000/svg" xmlns:xlink="http://www.w3.org/1999/xlink" xmlns:sketch="http://www.bohemiancoding.com/sketch/ns">
    <!-- Generator: Sketch 3.3.3 (12081) - http://www.bohemiancoding.com/sketch -->
    <title>CorujaLab</title>
    <desc>Created with Sketch.</desc>
    <defs></defs>
    <g id="Page-1" stroke="none" stroke-width="1" fill="none" fill-rule="evenodd" sketch:type="MSPage">
        <g id="CorujaLab" sketch:type="MSLayerGroup" transform="translate(-3.000000, -1.000000)" fill="#FFFFFF">
            <g id="Coruja-Busto" transform="translate(128.650000, 61.000000) scale(1, -1) translate(-128.650000, -61.000000) translate(72.150000, 1.000000)" sketch:type="MSShapeGroup">
                <path d="M46.5528107,79.2603684 C41.120134,78.2829413 37.7332352,76.0780474 34.7554919,71.5546053 C32.8233685,68.6450547 32.3232894,68.5541312 30.9594376,70.8726794 C28.5499659,74.9869659 24.0719856,77.4646301 17.5936892,78.2374795 C14.6159459,78.6011734 14.6386768,78.6011734 14.7977928,75.5325066 C14.934178,72.8275338 15.0023706,72.6911486 16.7299163,72.4411091 C19.4576201,72.0546844 21.8670917,71.0317955 24.162909,69.3042497 C26.3905338,67.6221658 28.4590425,64.8035386 30.1411264,61.1666002 C30.6412055,60.0755187 31.1412845,59.1435533 31.2776697,59.0526298 C31.7550178,58.7571286 32.1414425,59.2117459 33.5962178,61.5757558 C36.1420747,65.7127731 39.1880105,68.5314003 42.6885637,69.9634448 C44.7343415,70.7817559 47.4847761,71.440951 49.8033243,71.6455288 C51.0080601,71.7364523 51.9400256,71.94103 52.1218725,72.122877 C52.3946429,72.3956473 52.371912,72.8275338 51.9627564,75.1688128 C51.7127169,76.6690499 51.3944848,78.2602104 51.2353688,78.6920968 C50.9853293,79.4876771 50.9625984,79.4876771 49.6214774,79.5331388 C48.8713588,79.5558697 47.4847761,79.4194845 46.5528107,79.2603684 L46.5528107,79.2603684 Z" id="Shape"></path>
                <path d="M13.4465299,1 C12.4646185,2.60780158 11.414628,4.6258786 10.1152347,7.47629809 C5.52339905,17.549198 3.31870623,24.0016366 1.77300744,35.3897998 C0.272770375,46.4597308 -0.0227308646,56.7113508 0.386424698,84.6021216 C0.522809885,95.1719736 0.386424698,110.219806 0.0681925937,115.85706 C-0.113654323,119.471268 -0.0227308646,119.51673 2.52312597,116.857218 C5.18263712,114.061322 6.59195073,112.902048 9.41057794,111.197233 C17.7300744,106.12825 29.2773536,104.696206 39.1652797,107.560295 L55.395117,117.039065 C56.8498923,118.448379 58.1455516,119.584922 58.3046676,119.607653 C58.6683615,119.607653 58.9638627,118.516572 59.3957491,115.538828 C59.6003269,114.106784 59.8049047,112.856586 59.8730973,112.742932 C59.9412899,112.652008 60.2822529,111.129041 60.6459467,109.333302 C62.441685,100.741035 67.4879369,84.7612377 71.3749148,75.3961215 C72.011379,73.8958844 72.8751518,71.8046448 73.3070383,70.7590251 C74.3753889,68.1222448 77.7395569,61.4848323 79.0352161,59.3935928 C79.6262186,58.4388965 81.7629199,55.4384224 83.8086977,52.7107186 C85.8317447,49.9830149 88.0821002,46.8461555 88.7640262,45.7778049 C89.468683,44.6867234 90.5824954,42.9591777 91.2644213,41.9362888 C93.5375077,38.4584665 99.0838387,28.5932713 101.993389,22.7741699 C104.566341,17.663037 108.043426,10.3846424 112.404306,1 L104.952031,1 C101.242068,9.00457451 97.4628585,16.9782038 95.5832856,20.3874292 C90.6506879,29.2979281 85.6726286,37.026422 80.5354532,43.6865654 C75.1482383,50.6422099 72.170495,55.6430001 68.6017493,63.6669953 C64.8966184,72.0092226 61.8506825,80.3514499 59.3048257,89.1482945 C57.6909343,94.6718946 56.8044306,98.5816033 55.8724651,104.01428 C55.6224256,105.491786 55.3041935,106.855638 55.1678083,107.014754 C54.713191,107.583026 53.9403416,107.355717 52.6901441,106.287366 C48.3258181,102.559505 42.8931415,100.036379 36.3239216,98.6497959 C33.2779857,97.9906008 32.6869833,97.9451391 28.368119,97.9451391 C25.7313387,97.9224083 22.9581732,98.0587934 21.980746,98.2179095 C15.8661435,99.1953367 10.569852,101.3775 7.22841494,104.28705 C5.86456306,105.491786 5.1371754,105.787287 4.81894329,105.241747 C4.59163465,104.900784 4.6825581,101.195653 5.0689828,93.3535045 C5.25082972,89.739297 5.50086923,79.9650252 5.63725442,71.6455288 C5.97821738,47.6417358 6.45556554,40.9133999 8.38768903,31.1845898 C10.3880051,21.0693551 14.0476743,12.2270488 19.9122374,3.22562641 C20.3052506,2.62158635 20.8511211,1.87046034 21.5229118,1 L13.4465299,1 Z M39.5835677,1 C33.1502505,8.71589837 29.7945406,14.9676047 29.3910079,19.9328119 C28.6636202,28.6614639 35.3010327,33.6622541 50.530712,35.9580714 C53.3038774,36.3899578 57.0544701,36.6854591 63.1690727,36.9582294 C68.8745197,37.2309998 69.5337148,37.2991924 70.5111419,37.7538097 C73.1706531,39.049469 73.7161938,42.2090592 71.4885691,43.3910641 C70.8521049,43.7320271 70.0337938,43.7774888 64.3965394,43.7320271 C57.7818578,43.6865654 51.2808305,43.2092172 44.6206872,42.2999826 C30.1411264,40.2996665 21.6397831,35.8671479 19.4803509,29.1615429 C18.7756941,27.0248416 18.798425,23.5924811 19.5030818,20.9557008 C21.0756444,15.1084259 24.849528,9.04533523 31.8972072,1 L39.5835677,1 Z" id="Shape"></path>
            </g>
            <text id="Wordmark" sketch:type="MSTextLayer" font-family="Avenir Next" font-size="100" font-weight="bold">
                <tspan x="0" y="168">CorujaLab</tspan>
            </text>
        </g>
    </g>
</svg>